<svg width="30" height="30" viewBox="0 0 30 30" fill="none" xmlns="http://www.w3.org/2000/svg">
<g id="arrow 1">
<g id="Group 1">
<path id="Vector" d="M15.4679 12.7888L20.8073 7.6667C20.9358 7.5435 21 7.3938 21 7.2178C21 7.0418 20.9358 6.8922 20.8073 6.769L20.2018 6.1881C20.0734 6.0649 19.9174 6.0033 19.7339 6.0033C19.5505 5.9857 19.3945 6.0385 19.2661 6.1617L15 10.2541L10.7339 6.1617C10.6055 6.0385 10.4495 5.9857 10.2661 6.0033C10.0826 6.0033 9.92661 6.0649 9.79817 6.1881L9.19266 6.769C9.06422 6.8922 9 7.0418 9 7.2178C9 7.3938 9.06422 7.5435 9.19266 7.6667L14.5321 12.7888C14.6606 12.9296 14.8165 13 15 13C15.1835 13 15.3395 12.9296 15.4679 12.7888Z" fill="white"/>
<path id="Vector_2" d="M15.4679 22.7888L20.8073 17.6667C20.9358 17.5435 21 17.3938 21 17.2178C21 17.0418 20.9358 16.8922 20.8073 16.769L20.2018 16.1881C20.0734 16.0649 19.9174 16.0033 19.7339 16.0033C19.5505 15.9857 19.3945 16.0385 19.2661 16.1617L15 20.2541L10.7339 16.1617C10.6055 16.0385 10.4495 15.9857 10.2661 16.0033C10.0826 16.0033 9.92661 16.0649 9.79817 16.1881L9.19266 16.769C9.06422 16.8922 9 17.0418 9 17.2178C9 17.3938 9.06422 17.5435 9.19266 17.6667L14.5321 22.7888C14.6606 22.9296 14.8165 23 15 23C15.1835 23 15.3395 22.9296 15.4679 22.7888Z" fill="white"/>
</g>
</g>
</svg>
